<?xml version="1.0" standalone="no"?>
<svg xmlns="http://www.w3.org/2000/svg" xmlns:xlink="http://www.w3.org/1999/xlink" width="1039pt" height="2136pt" viewBox="0.00 0.00 1038.63 2136.06">
<g id="graph0" class="graph" transform="translate(4,2132.06005859375) scale(1)" data-name="G">

<polygon fill="#2e3e56" stroke="none" points="-4,4 -4,-2132.06 1034.63,-2132.06 1034.63,4 -4,4" style=""/>
<g id="clust1" class="cluster" data-name="clusterLandManagementSystem">

<path fill="#445773" stroke="#445773" d="M20,-1188.06C20,-1188.06 519.59,-1188.06 519.59,-1188.06 525.59,-1188.06 531.59,-1194.06 531.59,-1200.06 531.59,-1200.06 531.59,-1971.06 531.59,-1971.06 531.59,-1977.06 525.59,-1983.06 519.59,-1983.06 519.59,-1983.06 20,-1983.06 20,-1983.06 14,-1983.06 8,-1977.06 8,-1971.06 8,-1971.06 8,-1200.06 8,-1200.06 8,-1194.06 14,-1188.06 20,-1188.06" style=""/>
<text text-anchor="middle" x="269.8" y="-1966.46" font-family="Times,serif" font-size="14.00" fill="#f0f0f0" style="">LandManagementSystem</text>
</g>
<g id="clust2" class="cluster" data-name="clusterUserRecords">

<path fill="#445773" stroke="#445773" d="M380.56,-231.06C380.56,-231.06 1010.63,-231.06 1010.63,-231.06 1016.63,-231.06 1022.63,-237.06 1022.63,-243.06 1022.63,-243.06 1022.63,-1168.06 1022.63,-1168.06 1022.63,-1174.06 1016.63,-1180.06 1010.63,-1180.06 1010.63,-1180.06 380.56,-1180.06 380.56,-1180.06 374.56,-1180.06 368.56,-1174.06 368.56,-1168.06 368.56,-1168.06 368.56,-243.06 368.56,-243.06 368.56,-237.06 374.56,-231.06 380.56,-231.06" style=""/>
<text text-anchor="middle" x="695.59" y="-1163.46" font-family="Times,serif" font-size="14.00" fill="#f0f0f0" style="">UserRecords</text>
</g>
<g id="clust3" class="cluster" data-name="clusterTransactionHistory">

<path fill="#445773" stroke="#445773" d="M656.39,-92.06C656.39,-92.06 843.16,-92.06 843.16,-92.06 849.16,-92.06 855.16,-98.06 855.16,-104.06 855.16,-104.06 855.16,-211.06 855.16,-211.06 855.16,-217.06 849.16,-223.06 843.16,-223.06 843.16,-223.06 656.39,-223.06 656.39,-223.06 650.39,-223.06 644.39,-217.06 644.39,-211.06 644.39,-211.06 644.39,-104.06 644.39,-104.06 644.39,-98.06 650.39,-92.06 656.39,-92.06" style=""/>
<text text-anchor="middle" x="749.77" y="-206.46" font-family="Times,serif" font-size="14.00" fill="#f0f0f0" style="">TransactionHistory</text>
</g>
<g id="clust4" class="cluster" data-name="cluster_01">

<polygon fill="#2e3e56" stroke="black" points="105.28,-1991.06 105.28,-2120.06 517.53,-2120.06 517.53,-1991.06 105.28,-1991.06" style=""/>
<text text-anchor="middle" x="311.4" y="-2103.46" font-family="Times,serif" font-size="14.00" style="">Legend</text>
</g>
<!-- LandManagementSystem.&lt;Constructor&gt; -->
<g id="node1" class="node" pointer-events="visible" data-name="LandManagementSystem.&lt;Constructor&gt;">

<ellipse fill="#ff9797" stroke="#ff9797" stroke-width="3" cx="178.28" cy="-1932.06" rx="67.55" ry="18" style=""/>
<text text-anchor="middle" x="178.28" y="-1927.86" font-family="Times,serif" font-size="14.00" style="">&lt;Constructor&gt;</text>
</g>
<!-- LandManagementSystem.onlyOwner -->
<g id="node2" class="node" pointer-events="visible" data-name="LandManagementSystem.onlyOwner">

<polygon fill="#edad56" stroke="#1bc6a6" stroke-width="3" points="237.23,-1866.6 237.23,-1881.52 202.7,-1892.06 153.86,-1892.06 119.33,-1881.52 119.33,-1866.6 153.86,-1856.06 202.7,-1856.06 237.23,-1866.6" style=""/>
<polygon fill="none" stroke="#1bc6a6" stroke-width="3" points="241.22,-1863.64 241.22,-1884.48 203.29,-1896.06 153.27,-1896.06 115.34,-1884.48 115.34,-1863.64 153.27,-1852.06 203.29,-1852.06 241.22,-1863.64" style=""/>
<text text-anchor="middle" x="178.28" y="-1869.86" font-family="Times,serif" font-size="14.00" style="">onlyOwner</text>
</g>
<!-- LandManagementSystem.onlyGovernmentOfficial -->
<g id="node3" class="node" pointer-events="visible" data-name="LandManagementSystem.onlyGovernmentOfficial">

<polygon fill="#edad56" stroke="#1bc6a6" stroke-width="3" points="293.34,-1804.6 293.34,-1819.52 225.94,-1830.06 130.62,-1830.06 63.22,-1819.52 63.22,-1804.6 130.62,-1794.06 225.94,-1794.06 293.34,-1804.6" style=""/>
<polygon fill="none" stroke="#1bc6a6" stroke-width="3" points="297.34,-1801.18 297.34,-1822.94 226.25,-1834.06 130.31,-1834.06 59.22,-1822.94 59.22,-1801.18 130.31,-1790.06 226.25,-1790.06 297.34,-1801.18" style=""/>
<text text-anchor="middle" x="178.28" y="-1807.86" font-family="Times,serif" font-size="14.00" style="">onlyGovernmentOfficial</text>
</g>
<!-- UserRecords.isGovernmentOfficial -->
<g id="node17" class="node" pointer-events="visible" data-name="UserRecords.isGovernmentOfficial">

<ellipse fill="#ff9797" stroke="#ff9797" stroke-width="3" cx="749.77" cy="-1075.06" rx="95.55" ry="18" style=""/>
<text text-anchor="middle" x="749.77" y="-1070.86" font-family="Times,serif" font-size="14.00" style="">isGovernmentOfficial</text>
</g>
<!-- LandManagementSystem.onlyGovernmentOfficial&#45;&gt;UserRecords.isGovernmentOfficial -->
<g id="edge1" class="edge" data-name="LandManagementSystem.onlyGovernmentOfficial-&gt;UserRecords.isGovernmentOfficial">

<path fill="none" stroke="white" stroke-width="2" d="M298.65,-1805.14C314.14,-1799.88 328.71,-1792.18 340.56,-1781.06 376.72,-1747.13 352.14,-1719.85 368.56,-1673.06 380.07,-1640.26 597.51,-1123.96 624.5,-1102.06 631.95,-1096.01 640.45,-1091.24 649.43,-1087.49" style=""/>
<polygon fill="white" stroke="white" stroke-width="2" points="650.42,-1090.85 658.63,-1084.15 648.03,-1084.27 650.42,-1090.85" style=""/>
</g>
<!-- LandManagementSystem.addLandRecord -->
<g id="node4" class="node" pointer-events="visible" data-name="LandManagementSystem.addLandRecord">

<ellipse fill="#ff9797" stroke="#ff9797" stroke-width="3" cx="178.28" cy="-1538.06" rx="72.92" ry="18" style=""/>
<text text-anchor="middle" x="178.28" y="-1533.86" font-family="Times,serif" font-size="14.00" style="">addLandRecord</text>
</g>
<!-- UserRecords.isUserVerified -->
<g id="node18" class="node" pointer-events="visible" data-name="UserRecords.isUserVerified">

<ellipse fill="#ff9797" stroke="#ff9797" stroke-width="3" cx="482.53" cy="-473.06" rx="67.77" ry="18" style=""/>
<text text-anchor="middle" x="482.53" y="-468.86" font-family="Times,serif" font-size="14.00" style="">isUserVerified</text>
</g>
<!-- LandManagementSystem.addLandRecord&#45;&gt;UserRecords.isUserVerified -->
<g id="edge2" class="edge" data-name="LandManagementSystem.addLandRecord-&gt;UserRecords.isUserVerified">

<path fill="none" stroke="white" stroke-width="2" d="M247.71,-1545.07C280.74,-1544.42 318,-1536.97 340.56,-1511.06 414.35,-1426.3 297.73,-587.3 368.56,-500.06 377.04,-489.62 388.76,-482.79 401.47,-478.39" style=""/>
<polygon fill="white" stroke="white" stroke-width="2" points="402.3,-481.79 410.97,-475.71 400.39,-475.06 402.3,-481.79" style=""/>
</g>
<!-- UserRecords.updateLandIds -->
<g id="node19" class="node" pointer-events="visible" data-name="UserRecords.updateLandIds">

<ellipse fill="#ff9797" stroke="#ff9797" stroke-width="3" cx="482.53" cy="-743.06" rx="68.34" ry="18" style=""/>
<text text-anchor="middle" x="482.53" y="-738.86" font-family="Times,serif" font-size="14.00" style="">updateLandIds</text>
</g>
<!-- LandManagementSystem.addLandRecord&#45;&gt;UserRecords.updateLandIds -->
<g id="edge3" class="edge" data-name="LandManagementSystem.addLandRecord-&gt;UserRecords.updateLandIds">

<path fill="none" stroke="white" stroke-width="2" d="M247.6,-1544.97C280.6,-1544.3 317.87,-1536.86 340.56,-1511.06 394.97,-1449.19 316.31,-833.76 368.56,-770.06 376.99,-759.78 388.57,-753.01 401.12,-748.61" style=""/>
<polygon fill="white" stroke="white" stroke-width="2" points="401.83,-752.05 410.47,-745.93 399.89,-745.32 401.83,-752.05" style=""/>
</g>
<!-- TransactionHistory.recordTransaction -->
<g id="node39" class="node" pointer-events="visible" data-name="TransactionHistory.recordTransaction">

<ellipse fill="#ff9797" stroke="#ff9797" stroke-width="3" cx="749.77" cy="-172.06" rx="81.06" ry="18" style=""/>
<text text-anchor="middle" x="749.77" y="-167.86" font-family="Times,serif" font-size="14.00" style="">recordTransaction</text>
</g>
<!-- LandManagementSystem.addLandRecord&#45;&gt;TransactionHistory.recordTransaction -->
<g id="edge4" class="edge" data-name="LandManagementSystem.addLandRecord-&gt;TransactionHistory.recordTransaction">

<path fill="none" stroke="white" stroke-width="2" d="M247.38,-1545.14C280.53,-1544.56 318,-1537.16 340.56,-1511.06 389.69,-1454.22 314.89,-211.63 368.56,-159.06 410.26,-118.22 575.63,-139.97 674.01,-157.35" style=""/>
<polygon fill="white" stroke="white" stroke-width="2" points="673.11,-160.74 683.57,-159.07 674.35,-153.86 673.11,-160.74" style=""/>
</g>
<!-- LandManagementSystem.verifyLandRecord -->
<g id="node5" class="node" pointer-events="visible" data-name="LandManagementSystem.verifyLandRecord">

<ellipse fill="#ff9797" stroke="#ff9797" stroke-width="3" cx="178.28" cy="-1376.06" rx="81.65" ry="18" style=""/>
<text text-anchor="middle" x="178.28" y="-1371.86" font-family="Times,serif" font-size="14.00" style="">verifyLandRecord</text>
</g>
<!-- LandManagementSystem.verifyLandRecord&#45;&gt;TransactionHistory.recordTransaction -->
<g id="edge5" class="edge" data-name="LandManagementSystem.verifyLandRecord-&gt;TransactionHistory.recordTransaction">

<path fill="none" stroke="white" stroke-width="2" d="M256.04,-1382.82C286.87,-1381.13 319.93,-1372.89 340.56,-1349.06 386.6,-1295.87 318.27,-132.25 368.56,-83.06 438.44,-14.71 503.78,-34.29 588.5,-83.06 616.11,-98.96 598.74,-126.3 624.5,-145.06 634.98,-152.69 647.2,-158.24 659.79,-162.27" style=""/>
<polygon fill="white" stroke="white" stroke-width="2" points="658.46,-165.53 669.03,-164.86 660.35,-158.79 658.46,-165.53" style=""/>
</g>
<!-- LandManagementSystem.rejectLandRecord -->
<g id="node6" class="node" pointer-events="visible" data-name="LandManagementSystem.rejectLandRecord">

<ellipse fill="#ff9797" stroke="#ff9797" stroke-width="3" cx="178.28" cy="-1214.06" rx="80.41" ry="18" style=""/>
<text text-anchor="middle" x="178.28" y="-1209.86" font-family="Times,serif" font-size="14.00" style="">rejectLandRecord</text>
</g>
<!-- LandManagementSystem.rejectLandRecord&#45;&gt;TransactionHistory.recordTransaction -->
<g id="edge6" class="edge" data-name="LandManagementSystem.rejectLandRecord-&gt;TransactionHistory.recordTransaction">

<path fill="none" stroke="white" stroke-width="2" d="M179.18,-1194.91C178.88,-1055.82 184.6,-201.63 368.56,-45.06 443,18.3 508.53,11.15 588.5,-45.06 627.15,-72.22 588.97,-113.93 624.5,-145.06 634.03,-153.41 645.53,-159.37 657.63,-163.6" style=""/>
<polygon fill="white" stroke="white" stroke-width="2" points="656.41,-166.89 667,-166.4 658.42,-160.18 656.41,-166.89" style=""/>
</g>
<!-- LandManagementSystem.buyLand -->
<g id="node7" class="node" pointer-events="visible" data-name="LandManagementSystem.buyLand">

<ellipse fill="#ff9797" stroke="brown" stroke-width="3" cx="178.28" cy="-1754.06" rx="45.23" ry="18" style=""/>
<text text-anchor="middle" x="178.28" y="-1749.86" font-family="Times,serif" font-size="14.00" style="">buyLand</text>
</g>
<!-- LandManagementSystem.payable -->
<g id="node15" class="node" pointer-events="visible" data-name="LandManagementSystem.payable">

<ellipse fill="#edad56" stroke="#edad56" stroke-width="3" cx="482.53" cy="-1754.06" rx="41.13" ry="18" style=""/>
<text text-anchor="middle" x="482.53" y="-1749.86" font-family="Times,serif" font-size="14.00" style="">payable</text>
</g>
<!-- LandManagementSystem.buyLand&#45;&gt;LandManagementSystem.payable -->
<g id="edge10" class="edge" data-name="LandManagementSystem.buyLand-&gt;LandManagementSystem.payable">

<path fill="none" stroke="#1bc6a6" stroke-width="2" d="M224.86,-1754.06C279.02,-1754.06 369.3,-1754.06 427.09,-1754.06" style=""/>
<polygon fill="#1bc6a6" stroke="#1bc6a6" stroke-width="2" points="426.94,-1757.56 436.94,-1754.06 426.94,-1750.56 426.94,-1757.56" style=""/>
</g>
<!-- LandManagementSystem.buyLand&#45;&gt;UserRecords.isUserVerified -->
<g id="edge7" class="edge" data-name="LandManagementSystem.buyLand-&gt;UserRecords.isUserVerified">

<path fill="none" stroke="white" stroke-width="2" d="M222.42,-1760.38C259.73,-1763.14 312.03,-1760 340.56,-1727.06 385.2,-1675.52 325.71,-553.1 368.56,-500.06 377.01,-489.6 388.72,-482.76 401.43,-478.36" style=""/>
<polygon fill="white" stroke="white" stroke-width="2" points="402.25,-481.76 410.92,-475.67 400.35,-475.02 402.25,-481.76" style=""/>
</g>
<!-- LandManagementSystem.buyLand&#45;&gt;UserRecords.updateLandIds -->
<g id="edge11" class="edge" data-name="LandManagementSystem.buyLand-&gt;UserRecords.updateLandIds">

<path fill="none" stroke="white" stroke-width="2" d="M222.37,-1760.34C259.64,-1763.07 311.92,-1759.91 340.56,-1727.06 410.47,-1646.88 301.44,-852.59 368.56,-770.06 376.95,-759.75 388.51,-752.95 401.05,-748.55" style=""/>
<polygon fill="white" stroke="white" stroke-width="2" points="401.75,-751.99 410.4,-745.86 399.82,-745.26 401.75,-751.99" style=""/>
</g>
<!-- UserRecords.removeLandFromUser -->
<g id="node20" class="node" pointer-events="visible" data-name="UserRecords.removeLandFromUser">

<ellipse fill="#ff9797" stroke="#ff9797" stroke-width="3" cx="482.53" cy="-797.06" rx="98.99" ry="18" style=""/>
<text text-anchor="middle" x="482.53" y="-792.86" font-family="Times,serif" font-size="14.00" style="">removeLandFromUser</text>
</g>
<!-- LandManagementSystem.buyLand&#45;&gt;UserRecords.removeLandFromUser -->
<g id="edge8" class="edge" data-name="LandManagementSystem.buyLand-&gt;UserRecords.removeLandFromUser">

<path fill="none" stroke="white" stroke-width="2" d="M222.35,-1760.33C259.62,-1763.05 311.89,-1759.88 340.56,-1727.06 406.6,-1651.46 305.16,-901.89 368.56,-824.06 372.35,-819.41 376.79,-815.47 381.67,-812.14" style=""/>
<polygon fill="white" stroke="white" stroke-width="2" points="383.33,-815.22 390.35,-807.29 379.92,-809.12 383.33,-815.22" style=""/>
</g>
<!-- LandManagementSystem.buyLand&#45;&gt;TransactionHistory.recordTransaction -->
<g id="edge9" class="edge" data-name="LandManagementSystem.buyLand-&gt;TransactionHistory.recordTransaction">

<path fill="none" stroke="white" stroke-width="2" d="M222.45,-1760.41C259.78,-1763.19 312.09,-1760.06 340.56,-1727.06 395,-1663.95 313.42,-289.56 368.56,-227.06 371.02,-224.27 554.27,-198.72 665.44,-183.44" style=""/>
<polygon fill="white" stroke="white" stroke-width="2" points="665.86,-186.92 675.29,-182.09 664.91,-179.98 665.86,-186.92" style=""/>
</g>
<!-- LandManagementSystem.sellLand -->
<g id="node8" class="node" pointer-events="visible" data-name="LandManagementSystem.sellLand">

<ellipse fill="#ff9797" stroke="#ff9797" stroke-width="3" cx="178.28" cy="-1430.06" rx="44.08" ry="18" style=""/>
<text text-anchor="middle" x="178.28" y="-1425.86" font-family="Times,serif" font-size="14.00" style="">sellLand</text>
</g>
<!-- LandManagementSystem.sellLand&#45;&gt;UserRecords.isUserVerified -->
<g id="edge12" class="edge" data-name="LandManagementSystem.sellLand-&gt;UserRecords.isUserVerified">

<path fill="none" stroke="white" stroke-width="2" d="M221.27,-1436.24C258.59,-1439.11 311.61,-1436.2 340.56,-1403.06 406.6,-1327.46 305.16,-577.89 368.56,-500.06 377,-489.69 388.65,-482.89 401.28,-478.49" style=""/>
<polygon fill="white" stroke="white" stroke-width="2" points="402.05,-481.91 410.7,-475.8 400.13,-475.18 402.05,-481.91" style=""/>
</g>
<!-- LandManagementSystem.sellLand&#45;&gt;TransactionHistory.recordTransaction -->
<g id="edge13" class="edge" data-name="LandManagementSystem.sellLand-&gt;TransactionHistory.recordTransaction">

<path fill="none" stroke="white" stroke-width="2" d="M221.34,-1436.31C258.71,-1439.21 311.76,-1436.33 340.56,-1403.06 387.18,-1349.19 317.64,-170.88 368.56,-121.06 438.43,-52.7 494.94,-92.73 588.5,-121.06 606.9,-126.63 606.79,-137.55 624.5,-145.06 637.86,-150.73 652.56,-155.26 667.02,-158.87" style=""/>
<polygon fill="white" stroke="white" stroke-width="2" points="666.15,-162.27 676.68,-161.13 667.74,-155.45 666.15,-162.27" style=""/>
</g>
<!-- LandManagementSystem.getAllLandRecords -->
<g id="node9" class="node" pointer-events="visible" data-name="LandManagementSystem.getAllLandRecords">

<ellipse fill="#ff9797" stroke="#ff9797" stroke-width="3" cx="178.28" cy="-1592.06" rx="86.82" ry="18" style=""/>
<text text-anchor="middle" x="178.28" y="-1587.86" font-family="Times,serif" font-size="14.00" style="">getAllLandRecords</text>
</g>
<!-- LandManagementSystem.getAllLandRecords&#45;&gt;UserRecords.isUserVerified -->
<g id="edge14" class="edge" data-name="LandManagementSystem.getAllLandRecords-&gt;UserRecords.isUserVerified">

<path fill="none" stroke="white" stroke-width="2" d="M261.43,-1598.41C290.65,-1596.06 321.1,-1587.45 340.56,-1565.06 418.22,-1475.72 294.01,-592.01 368.56,-500.06 377.03,-489.61 388.75,-482.78 401.46,-478.38" style=""/>
<polygon fill="white" stroke="white" stroke-width="2" points="402.28,-481.78 410.95,-475.7 400.38,-475.05 402.28,-481.78" style=""/>
</g>
<!-- LandManagementSystem.getLandRecordsExceptForCurrentUser -->
<g id="node10" class="node" pointer-events="visible" data-name="LandManagementSystem.getLandRecordsExceptForCurrentUser">

<ellipse fill="#ff9797" stroke="#ff9797" stroke-width="3" cx="178.28" cy="-1646.06" rx="162.06" ry="18" style=""/>
<text text-anchor="middle" x="178.28" y="-1641.86" font-family="Times,serif" font-size="14.00" style="">getLandRecordsExceptForCurrentUser</text>
</g>
<!-- LandManagementSystem.getLandRecordsExceptForCurrentUser&#45;&gt;UserRecords.isUserVerified -->
<g id="edge15" class="edge" data-name="LandManagementSystem.getLandRecordsExceptForCurrentUser-&gt;UserRecords.isUserVerified">

<path fill="none" stroke="white" stroke-width="2" d="M319.23,-1636.39C327.18,-1631.83 334.42,-1626.13 340.56,-1619.06 422.1,-1525.14 290.3,-596.72 368.56,-500.06 377.02,-489.61 388.74,-482.77 401.45,-478.37" style=""/>
<polygon fill="white" stroke="white" stroke-width="2" points="402.27,-481.78 410.94,-475.69 400.37,-475.04 402.27,-481.78" style=""/>
</g>
<!-- LandManagementSystem.getLandRecordsForCurrentUser -->
<g id="node11" class="node" pointer-events="visible" data-name="LandManagementSystem.getLandRecordsForCurrentUser">

<ellipse fill="#ff9797" stroke="#ff9797" stroke-width="3" cx="178.28" cy="-1484.06" rx="135.44" ry="18" style=""/>
<text text-anchor="middle" x="178.28" y="-1479.86" font-family="Times,serif" font-size="14.00" style="">getLandRecordsForCurrentUser</text>
</g>
<!-- LandManagementSystem.getLandRecordsForCurrentUser&#45;&gt;UserRecords.isUserVerified -->
<g id="edge16" class="edge" data-name="LandManagementSystem.getLandRecordsForCurrentUser-&gt;UserRecords.isUserVerified">

<path fill="none" stroke="white" stroke-width="2" d="M310.25,-1478.89C321.74,-1473.77 332.16,-1466.69 340.56,-1457.06 410.47,-1376.88 301.44,-582.59 368.56,-500.06 377,-489.69 388.64,-482.87 401.27,-478.48" style=""/>
<polygon fill="white" stroke="white" stroke-width="2" points="402.03,-481.9 410.69,-475.79 400.11,-475.17 402.03,-481.9" style=""/>
</g>
<!-- UserRecords.getMutationNumber -->
<g id="node21" class="node" pointer-events="visible" data-name="UserRecords.getMutationNumber">

<ellipse fill="#ff9797" stroke="#ff9797" stroke-width="3" cx="482.53" cy="-419.06" rx="89.77" ry="18" style=""/>
<text text-anchor="middle" x="482.53" y="-414.86" font-family="Times,serif" font-size="14.00" style="">getMutationNumber</text>
</g>
<!-- LandManagementSystem.getLandRecordsForCurrentUser&#45;&gt;UserRecords.getMutationNumber -->
<g id="edge17" class="edge" data-name="LandManagementSystem.getLandRecordsForCurrentUser-&gt;UserRecords.getMutationNumber">

<path fill="none" stroke="white" stroke-width="2" d="M310.27,-1478.91C321.75,-1473.78 332.17,-1466.7 340.56,-1457.06 414.35,-1372.3 297.73,-533.3 368.56,-446.06 373.4,-440.09 379.31,-435.3 385.86,-431.47" style=""/>
<polygon fill="white" stroke="white" stroke-width="2" points="387.19,-434.72 394.67,-427.21 384.15,-428.41 387.19,-434.72" style=""/>
</g>
<!-- LandManagementSystem.updateDocument -->
<g id="node12" class="node" pointer-events="visible" data-name="LandManagementSystem.updateDocument">

<ellipse fill="#ff9797" stroke="#ff9797" stroke-width="3" cx="178.28" cy="-1322.06" rx="77.01" ry="18" style=""/>
<text text-anchor="middle" x="178.28" y="-1317.86" font-family="Times,serif" font-size="14.00" style="">updateDocument</text>
</g>
<!-- LandManagementSystem.removeMutationNumber -->
<g id="node13" class="node" pointer-events="visible" data-name="LandManagementSystem.removeMutationNumber">

<ellipse fill="#f2c383" stroke="#f2c383" stroke-width="3" cx="178.28" cy="-1268.06" rx="107.09" ry="18" style=""/>
<text text-anchor="middle" x="178.28" y="-1263.86" font-family="Times,serif" font-size="14.00" style="">removeMutationNumber</text>
</g>
<!-- LandManagementSystem.transferOwnership -->
<g id="node14" class="node" pointer-events="visible" data-name="LandManagementSystem.transferOwnership">

<ellipse fill="#ff9797" stroke="#ff9797" stroke-width="3" cx="178.28" cy="-1700.06" rx="82.81" ry="18" style=""/>
<text text-anchor="middle" x="178.28" y="-1695.86" font-family="Times,serif" font-size="14.00" style="">transferOwnership</text>
</g>
<!-- LandManagementSystem.address -->
<g id="node16" class="node" pointer-events="visible" data-name="LandManagementSystem.address">

<ellipse fill="#edad56" stroke="#edad56" stroke-width="3" cx="482.53" cy="-1700.06" rx="40" ry="18" style=""/>
<text text-anchor="middle" x="482.53" y="-1695.86" font-family="Times,serif" font-size="14.00" style="">address</text>
</g>
<!-- LandManagementSystem.transferOwnership&#45;&gt;LandManagementSystem.address -->
<g id="edge18" class="edge" data-name="LandManagementSystem.transferOwnership-&gt;LandManagementSystem.address">

<path fill="none" stroke="#1bc6a6" stroke-width="2" d="M262.27,-1700.06C315.24,-1700.06 382.33,-1700.06 428.26,-1700.06" style=""/>
<polygon fill="#1bc6a6" stroke="#1bc6a6" stroke-width="2" points="428.18,-1703.56 438.18,-1700.06 428.18,-1696.56 428.18,-1703.56" style=""/>
</g>
<!-- LandManagementSystem.transferOwnership&#45;&gt;UserRecords.isUserVerified -->
<g id="edge19" class="edge" data-name="LandManagementSystem.transferOwnership-&gt;UserRecords.isUserVerified">

<path fill="none" stroke="white" stroke-width="2" d="M257.27,-1706.73C287.74,-1704.88 320.19,-1696.55 340.56,-1673.06 383.27,-1623.81 327.57,-550.74 368.56,-500.06 377.02,-489.6 388.73,-482.76 401.44,-478.36" style=""/>
<polygon fill="white" stroke="white" stroke-width="2" points="402.26,-481.77 410.93,-475.68 400.36,-475.03 402.26,-481.77" style=""/>
</g>
<!-- LandManagementSystem.transferOwnership&#45;&gt;UserRecords.updateLandIds -->
<g id="edge21" class="edge" data-name="LandManagementSystem.transferOwnership-&gt;UserRecords.updateLandIds">

<path fill="none" stroke="white" stroke-width="2" d="M257.61,-1706.63C287.94,-1704.72 320.2,-1696.37 340.56,-1673.06 406.6,-1597.46 305.16,-847.89 368.56,-770.06 376.96,-759.75 388.52,-752.96 401.07,-748.56" style=""/>
<polygon fill="white" stroke="white" stroke-width="2" points="401.77,-752 410.41,-745.88 399.83,-745.28 401.77,-752" style=""/>
</g>
<!-- LandManagementSystem.transferOwnership&#45;&gt;UserRecords.removeLandFromUser -->
<g id="edge20" class="edge" data-name="LandManagementSystem.transferOwnership-&gt;UserRecords.removeLandFromUser">

<path fill="none" stroke="white" stroke-width="2" d="M257.58,-1706.61C287.92,-1704.7 320.18,-1696.35 340.56,-1673.06 402.72,-1602.04 308.88,-897.18 368.56,-824.06 372.36,-819.41 376.8,-815.47 381.68,-812.15" style=""/>
<polygon fill="white" stroke="white" stroke-width="2" points="383.35,-815.23 390.37,-807.3 379.93,-809.12 383.35,-815.23" style=""/>
</g>
<!-- LandManagementSystem.transferOwnership&#45;&gt;TransactionHistory.recordTransaction -->
<g id="edge22" class="edge" data-name="LandManagementSystem.transferOwnership-&gt;TransactionHistory.recordTransaction">

<path fill="none" stroke="white" stroke-width="2" d="M257.33,-1706.78C287.81,-1704.94 320.25,-1696.6 340.56,-1673.06 394.14,-1610.97 311.94,-256.39 368.56,-197.06 407.06,-156.72 559.78,-158.67 659.56,-164.71" style=""/>
<polygon fill="white" stroke="white" stroke-width="2" points="659.14,-168.19 669.34,-165.33 659.59,-161.2 659.14,-168.19" style=""/>
</g>
<!-- UserRecords.checkRole -->
<g id="node33" class="node" pointer-events="visible" data-name="UserRecords.checkRole">

<ellipse fill="#edad56" stroke="#edad56" stroke-width="3" cx="962.84" cy="-1075.06" rx="51.58" ry="18" style=""/>
<text text-anchor="middle" x="962.84" y="-1070.86" font-family="Times,serif" font-size="14.00" style="">checkRole</text>
</g>
<!-- UserRecords.isGovernmentOfficial&#45;&gt;UserRecords.checkRole -->
<g id="edge32" class="edge" data-name="UserRecords.isGovernmentOfficial-&gt;UserRecords.checkRole">

<path fill="none" stroke="#1bc6a6" stroke-width="2" d="M846.73,-1075.06C863.75,-1075.06 881.1,-1075.06 896.99,-1075.06" style=""/>
<polygon fill="#1bc6a6" stroke="#1bc6a6" stroke-width="2" points="896.94,-1078.56 906.94,-1075.06 896.94,-1071.56 896.94,-1078.56" style=""/>
</g>
<!-- UserRecords.removeLandFromUser&#45;&gt;TransactionHistory.recordTransaction -->
<g id="edge26" class="edge" data-name="UserRecords.removeLandFromUser-&gt;TransactionHistory.recordTransaction">

<path fill="none" stroke="white" stroke-width="2" d="M566.89,-786.57C575.13,-782.52 582.61,-777.16 588.5,-770.06 665.72,-676.99 555.2,-326.17 624.5,-227.06 636.76,-209.52 655.93,-197.51 675.58,-189.31" style=""/>
<polygon fill="white" stroke="white" stroke-width="2" points="676.54,-192.68 684.65,-185.86 674.06,-186.14 676.54,-192.68" style=""/>
</g>
<!-- UserRecords.&lt;Constructor&gt; -->
<g id="node22" class="node" pointer-events="visible" data-name="UserRecords.&lt;Constructor&gt;">

<ellipse fill="#ff9797" stroke="#ff9797" stroke-width="3" cx="482.53" cy="-913.06" rx="67.55" ry="18" style=""/>
<text text-anchor="middle" x="482.53" y="-908.86" font-family="Times,serif" font-size="14.00" style="">&lt;Constructor&gt;</text>
</g>
<!-- UserRecords.onlyAdmin -->
<g id="node23" class="node" pointer-events="visible" data-name="UserRecords.onlyAdmin">

<polygon fill="#edad56" stroke="#1bc6a6" stroke-width="3" points="542.15,-847.6 542.15,-862.52 507.23,-873.06 457.83,-873.06 422.9,-862.52 422.9,-847.6 457.83,-837.06 507.23,-837.06 542.15,-847.6" style=""/>
<polygon fill="none" stroke="#1bc6a6" stroke-width="3" points="546.16,-844.63 546.16,-865.49 507.82,-877.06 457.24,-877.06 418.9,-865.49 418.9,-844.63 457.24,-833.06 507.82,-833.06 546.16,-844.63" style=""/>
<text text-anchor="middle" x="482.53" y="-850.86" font-family="Times,serif" font-size="14.00" style="">onlyAdmin</text>
</g>
<!-- UserRecords.addUser -->
<g id="node24" class="node" pointer-events="visible" data-name="UserRecords.addUser">

<ellipse fill="#ff9797" stroke="#ff9797" stroke-width="3" cx="482.53" cy="-1075.06" rx="43.43" ry="18" style=""/>
<text text-anchor="middle" x="482.53" y="-1070.86" font-family="Times,serif" font-size="14.00" style="">addUser</text>
</g>
<!-- UserRecords.address -->
<g id="node38" class="node" pointer-events="visible" data-name="UserRecords.address">

<ellipse fill="#edad56" stroke="#edad56" stroke-width="3" cx="749.77" cy="-1021.06" rx="40" ry="18" style=""/>
<text text-anchor="middle" x="749.77" y="-1016.86" font-family="Times,serif" font-size="14.00" style="">address</text>
</g>
<!-- UserRecords.addUser&#45;&gt;UserRecords.address -->
<g id="edge23" class="edge" data-name="UserRecords.addUser-&gt;UserRecords.address">

<path fill="none" stroke="#1bc6a6" stroke-width="2" d="M523.24,-1066.98C570.17,-1057.42 648.29,-1041.52 699.16,-1031.16" style=""/>
<polygon fill="#1bc6a6" stroke="#1bc6a6" stroke-width="2" points="699.72,-1034.62 708.82,-1029.19 698.33,-1027.76 699.72,-1034.62" style=""/>
</g>
<!-- UserRecords.addUser&#45;&gt;TransactionHistory.recordTransaction -->
<g id="edge24" class="edge" data-name="UserRecords.addUser-&gt;TransactionHistory.recordTransaction">

<path fill="none" stroke="white" stroke-width="2" d="M527.28,-1075.33C549.12,-1072.97 573.92,-1066.04 588.5,-1048.06 646.02,-977.14 573.02,-302.47 624.5,-227.06 636.56,-209.39 655.68,-197.33 675.33,-189.14" style=""/>
<polygon fill="white" stroke="white" stroke-width="2" points="676.3,-192.51 684.41,-185.7 673.82,-185.96 676.3,-192.51" style=""/>
</g>
<!-- UserRecords.getOwnProfile -->
<g id="node25" class="node" pointer-events="visible" data-name="UserRecords.getOwnProfile">

<ellipse fill="#ff9797" stroke="#ff9797" stroke-width="3" cx="482.53" cy="-1129.06" rx="67.79" ry="18" style=""/>
<text text-anchor="middle" x="482.53" y="-1124.86" font-family="Times,serif" font-size="14.00" style="">getOwnProfile</text>
</g>
<!-- UserRecords.getOwnProfile&#45;&gt;UserRecords.address -->
<g id="edge25" class="edge" data-name="UserRecords.getOwnProfile-&gt;UserRecords.address">

<path fill="none" stroke="#1bc6a6" stroke-width="2" d="M545.38,-1121.05C560.44,-1117.04 575.84,-1111.05 588.5,-1102.06 612.02,-1085.36 600.67,-1064.31 624.5,-1048.06 645.36,-1033.84 672.37,-1026.94 695.88,-1023.65" style=""/>
<polygon fill="#1bc6a6" stroke="#1bc6a6" stroke-width="2" points="695.99,-1027.16 705.52,-1022.52 695.18,-1020.21 695.99,-1027.16" style=""/>
</g>
<!-- UserRecords.getUserProfile -->
<g id="node26" class="node" pointer-events="visible" data-name="UserRecords.getUserProfile">

<ellipse fill="#ff9797" stroke="#ff9797" stroke-width="3" cx="482.53" cy="-689.06" rx="67.2" ry="18" style=""/>
<text text-anchor="middle" x="482.53" y="-684.86" font-family="Times,serif" font-size="14.00" style="">getUserProfile</text>
</g>
<!-- UserRecords.getAllUsers -->
<g id="node27" class="node" pointer-events="visible" data-name="UserRecords.getAllUsers">

<ellipse fill="#ff9797" stroke="#ff9797" stroke-width="3" cx="482.53" cy="-635.06" rx="57.33" ry="18" style=""/>
<text text-anchor="middle" x="482.53" y="-630.86" font-family="Times,serif" font-size="14.00" style="">getAllUsers</text>
</g>
<!-- UserRecords.getAadharNumber -->
<g id="node28" class="node" pointer-events="visible" data-name="UserRecords.getAadharNumber">

<ellipse fill="#ff9797" stroke="#ff9797" stroke-width="3" cx="482.53" cy="-581.06" rx="82.8" ry="18" style=""/>
<text text-anchor="middle" x="482.53" y="-576.86" font-family="Times,serif" font-size="14.00" style="">getAadharNumber</text>
</g>
<!-- UserRecords.getUsingAadharNumber -->
<g id="node29" class="node" pointer-events="visible" data-name="UserRecords.getUsingAadharNumber">

<ellipse fill="#ff9797" stroke="#ff9797" stroke-width="3" cx="482.53" cy="-527.06" rx="105.94" ry="18" style=""/>
<text text-anchor="middle" x="482.53" y="-522.86" font-family="Times,serif" font-size="14.00" style="">getUsingAadharNumber</text>
</g>
<!-- UserRecords.verifyUser -->
<g id="node30" class="node" pointer-events="visible" data-name="UserRecords.verifyUser">

<ellipse fill="#ff9797" stroke="#ff9797" stroke-width="3" cx="482.53" cy="-967.06" rx="52.16" ry="18" style=""/>
<text text-anchor="middle" x="482.53" y="-962.86" font-family="Times,serif" font-size="14.00" style="">verifyUser</text>
</g>
<!-- UserRecords.isCurrentGovernmentOfficial -->
<g id="node35" class="node" pointer-events="visible" data-name="UserRecords.isCurrentGovernmentOfficial">

<ellipse fill="#edad56" stroke="#edad56" stroke-width="3" cx="749.77" cy="-967.06" rx="125.05" ry="18" style=""/>
<text text-anchor="middle" x="749.77" y="-962.86" font-family="Times,serif" font-size="14.00" style="">isCurrentGovernmentOfficial</text>
</g>
<!-- UserRecords.verifyUser&#45;&gt;UserRecords.isCurrentGovernmentOfficial -->
<g id="edge27" class="edge" data-name="UserRecords.verifyUser-&gt;UserRecords.isCurrentGovernmentOfficial">

<path fill="none" stroke="#1bc6a6" stroke-width="2" d="M535.93,-967.06C557.7,-967.06 584.08,-967.06 610.76,-967.06" style=""/>
<polygon fill="#1bc6a6" stroke="#1bc6a6" stroke-width="2" points="610.41,-970.56 620.41,-967.06 610.41,-963.56 610.41,-970.56" style=""/>
</g>
<!-- UserRecords.verifyUser&#45;&gt;TransactionHistory.recordTransaction -->
<g id="edge28" class="edge" data-name="UserRecords.verifyUser-&gt;TransactionHistory.recordTransaction">

<path fill="none" stroke="white" stroke-width="2" d="M535.87,-966.12C555.34,-962.93 575.76,-955.66 588.5,-940.06 688.84,-817.18 534.62,-357.79 624.5,-227.06 636.62,-209.43 655.75,-197.39 675.4,-189.19" style=""/>
<polygon fill="white" stroke="white" stroke-width="2" points="676.37,-192.56 684.48,-185.75 673.89,-186.02 676.37,-192.56" style=""/>
</g>
<!-- UserRecords.rejectUser -->
<g id="node31" class="node" pointer-events="visible" data-name="UserRecords.rejectUser">

<ellipse fill="#ff9797" stroke="#ff9797" stroke-width="3" cx="482.53" cy="-1021.06" rx="50.92" ry="18" style=""/>
<text text-anchor="middle" x="482.53" y="-1016.86" font-family="Times,serif" font-size="14.00" style="">rejectUser</text>
</g>
<!-- UserRecords.rejectUser&#45;&gt;UserRecords.isCurrentGovernmentOfficial -->
<g id="edge29" class="edge" data-name="UserRecords.rejectUser-&gt;UserRecords.isCurrentGovernmentOfficial">

<path fill="none" stroke="#1bc6a6" stroke-width="2" d="M528.52,-1011.9C564.52,-1004.57 616.1,-994.07 660.3,-985.07" style=""/>
<polygon fill="#1bc6a6" stroke="#1bc6a6" stroke-width="2" points="660.78,-988.55 669.89,-983.12 659.39,-981.69 660.78,-988.55" style=""/>
</g>
<!-- UserRecords.rejectUser&#45;&gt;TransactionHistory.recordTransaction -->
<g id="edge30" class="edge" data-name="UserRecords.rejectUser-&gt;TransactionHistory.recordTransaction">

<path fill="none" stroke="white" stroke-width="2" d="M534.81,-1020.31C554.6,-1017.23 575.56,-1009.97 588.5,-994.06 642.34,-927.88 576.29,-297.45 624.5,-227.06 636.59,-209.41 655.71,-197.36 675.36,-189.16" style=""/>
<polygon fill="white" stroke="white" stroke-width="2" points="676.33,-192.53 684.45,-185.72 673.86,-185.99 676.33,-192.53" style=""/>
</g>
<!-- UserRecords.addGovernmentOfficial -->
<g id="node32" class="node" pointer-events="visible" data-name="UserRecords.addGovernmentOfficial">

<ellipse fill="#ff9797" stroke="#ff9797" stroke-width="3" cx="482.53" cy="-365.06" rx="103.06" ry="18" style=""/>
<text text-anchor="middle" x="482.53" y="-360.86" font-family="Times,serif" font-size="14.00" style="">addGovernmentOfficial</text>
</g>
<!-- UserRecords.removeGovernmentOfficial -->
<g id="node34" class="node" pointer-events="visible" data-name="UserRecords.removeGovernmentOfficial">

<ellipse fill="#ff9797" stroke="#ff9797" stroke-width="3" cx="749.77" cy="-1129.06" rx="118.08" ry="18" style=""/>
<text text-anchor="middle" x="749.77" y="-1124.86" font-family="Times,serif" font-size="14.00" style="">removeGovernmentOfficial</text>
</g>
<!-- UserRecords.removeGovernmentOfficial&#45;&gt;UserRecords.checkRole -->
<g id="edge31" class="edge" data-name="UserRecords.removeGovernmentOfficial-&gt;UserRecords.checkRole">

<path fill="none" stroke="#1bc6a6" stroke-width="2" d="M825.29,-1113.98C841.74,-1110.35 859.04,-1106.28 875.05,-1102.06 886.7,-1098.99 899.13,-1095.35 910.83,-1091.75" style=""/>
<polygon fill="#1bc6a6" stroke="#1bc6a6" stroke-width="2" points="911.78,-1095.12 920.28,-1088.79 909.69,-1088.44 911.78,-1095.12" style=""/>
</g>
<!-- UserRecords.isCurrentGovernmentOfficial&#45;&gt;UserRecords.checkRole -->
<g id="edge33" class="edge" data-name="UserRecords.isCurrentGovernmentOfficial-&gt;UserRecords.checkRole">

<path fill="none" stroke="#1bc6a6" stroke-width="2" d="M840.74,-980.53C852.63,-984.05 864.39,-988.48 875.05,-994.06 900,-1007.13 923.05,-1029.33 939.12,-1047.19" style=""/>
<polygon fill="#1bc6a6" stroke="#1bc6a6" stroke-width="2" points="936.1,-1049.05 945.3,-1054.3 941.38,-1044.46 936.1,-1049.05" style=""/>
</g>
<!-- UserRecords.isAdmin -->
<g id="node36" class="node" pointer-events="visible" data-name="UserRecords.isAdmin">

<ellipse fill="#ff9797" stroke="#ff9797" stroke-width="3" cx="482.53" cy="-311.06" rx="44.11" ry="18" style=""/>
<text text-anchor="middle" x="482.53" y="-306.86" font-family="Times,serif" font-size="14.00" style="">isAdmin</text>
</g>
<!-- UserRecords.whoIsAdmin -->
<g id="node37" class="node" pointer-events="visible" data-name="UserRecords.whoIsAdmin">

<ellipse fill="#ff9797" stroke="#ff9797" stroke-width="3" cx="482.53" cy="-257.06" rx="61.43" ry="18" style=""/>
<text text-anchor="middle" x="482.53" y="-252.86" font-family="Times,serif" font-size="14.00" style="">whoIsAdmin</text>
</g>
<!-- TransactionHistory.getTransactionHistory -->
<g id="node40" class="node" pointer-events="visible" data-name="TransactionHistory.getTransactionHistory">

<ellipse fill="#ff9797" stroke="#ff9797" stroke-width="3" cx="749.77" cy="-118.06" rx="97.28" ry="18" style=""/>
<text text-anchor="middle" x="749.77" y="-113.86" font-family="Times,serif" font-size="14.00" style="">getTransactionHistory</text>
</g>
<!-- key -->
<g id="node41" class="node" pointer-events="visible" data-name="key">

<polygon fill="#edad56" stroke="none" stroke-width="3" points="243.28,-2087.06 113.28,-2087.06 113.28,-1999.06 243.28,-1999.06 243.28,-2087.06" style=""/>
<text text-anchor="start" x="162.92" y="-2068.46" font-family="Times,serif" font-size="14.00" style="">Internal Call</text>
<text text-anchor="start" x="159.03" y="-2048.46" font-family="Times,serif" font-size="14.00" style="">External Call</text>
<text text-anchor="start" x="136.48" y="-2028.46" font-family="Times,serif" font-size="14.00" style="">Defined Contract</text>
<text text-anchor="start" x="122.88" y="-2008.46" font-family="Times,serif" font-size="14.00" style="">Undefined Contract</text>
</g>
<!-- key2 -->
<g id="node42" class="node" pointer-events="visible" data-name="key2">

<polygon fill="#edad56" stroke="none" stroke-width="3" points="509.53,-2087.06 455.53,-2087.06 455.53,-1999.06 509.53,-1999.06 509.53,-2087.06" style=""/>
<text text-anchor="start" x="472.53" y="-2068.46" font-family="Times,serif" font-size="14.00" style="">   </text>
<text text-anchor="start" x="472.53" y="-2048.46" font-family="Times,serif" font-size="14.00" style="">   </text>
<polygon fill="#445773" stroke="none" points="470.53,-2023.06 470.53,-2043.06 495.53,-2043.06 495.53,-2023.06 470.53,-2023.06" style=""/>
<text text-anchor="start" x="472.53" y="-2028.46" font-family="Times,serif" font-size="14.00" style="">   </text>
<polygon fill="none" stroke="#e8726d" points="472.53,-2005.06 472.53,-2021.06 493.53,-2021.06 493.53,-2005.06 472.53,-2005.06" style=""/>
</g>
<!-- key&#45;&gt;key2 -->
<g id="edge34" class="edge" data-name="key-&gt;key2">

<path fill="none" stroke="#1bc6a6" stroke-width="2" d="M236.28,-2073.06C335.49,-2073.06 363.49,-2073.06 456.58,-2073.06" style=""/>
<polygon fill="#1bc6a6" stroke="#1bc6a6" stroke-width="2" points="456.5,-2076.56 466.5,-2073.06 456.5,-2069.56 456.5,-2076.56" style=""/>
</g>
<!-- key&#45;&gt;key2 -->
<g id="edge35" class="edge" data-name="key-&gt;key2">

<path fill="none" stroke="white" stroke-width="2" d="M236.28,-2053.06C335.49,-2053.06 363.49,-2053.06 456.58,-2053.06" style=""/>
<polygon fill="white" stroke="white" stroke-width="2" points="456.5,-2056.56 466.5,-2053.06 456.5,-2049.56 456.5,-2056.56" style=""/>
</g>
</g>
</svg>