<?xml version="1.0" standalone="no"?>
<svg xmlns="http://www.w3.org/2000/svg" xmlns:xlink="http://www.w3.org/1999/xlink" width="1233pt" height="1366pt" viewBox="0.00 0.00 1232.93 1365.52">
<g id="graph0" class="graph" transform="translate(4,1361.52001953125) scale(1)" data-name="G">

<polygon fill="#2e3e56" stroke="none" points="-4,4 -4,-1361.52 1228.93,-1361.52 1228.93,4 -4,4" style=""/>
<g id="clust1" class="cluster" data-name="clusterLandManagementSystem">

<path fill="#445773" stroke="#445773" d="M20,-319.52C20,-319.52 530.86,-319.52 530.86,-319.52 536.86,-319.52 542.86,-325.52 542.86,-331.52 542.86,-331.52 542.86,-1048.52 542.86,-1048.52 542.86,-1054.52 536.86,-1060.52 530.86,-1060.52 530.86,-1060.52 20,-1060.52 20,-1060.52 14,-1060.52 8,-1054.52 8,-1048.52 8,-1048.52 8,-331.52 8,-331.52 8,-325.52 14,-319.52 20,-319.52" style=""/>
<text text-anchor="middle" x="275.43" y="-1043.92" font-family="Times,serif" font-size="14.00" fill="#f0f0f0" style="">LandManagementSystem</text>
</g>
<g id="clust2" class="cluster" data-name="clusterUserRecords">

<path fill="#445773" stroke="#445773" d="M574.86,-256.52C574.86,-256.52 1204.93,-256.52 1204.93,-256.52 1210.93,-256.52 1216.93,-262.52 1216.93,-268.52 1216.93,-268.52 1216.93,-1193.52 1216.93,-1193.52 1216.93,-1199.52 1210.93,-1205.52 1204.93,-1205.52 1204.93,-1205.52 574.86,-1205.52 574.86,-1205.52 568.86,-1205.52 562.86,-1199.52 562.86,-1193.52 562.86,-1193.52 562.86,-268.52 562.86,-268.52 562.86,-262.52 568.86,-256.52 574.86,-256.52" style=""/>
<text text-anchor="middle" x="889.89" y="-1188.92" font-family="Times,serif" font-size="14.00" fill="#f0f0f0" style="">UserRecords</text>
</g>
<g id="clust3" class="cluster" data-name="clusterTransactionHistory">

<path fill="#445773" stroke="#445773" d="M850.68,-117.52C850.68,-117.52 1037.46,-117.52 1037.46,-117.52 1043.46,-117.52 1049.46,-123.52 1049.46,-129.52 1049.46,-129.52 1049.46,-236.52 1049.46,-236.52 1049.46,-242.52 1043.46,-248.52 1037.46,-248.52 1037.46,-248.52 850.68,-248.52 850.68,-248.52 844.68,-248.52 838.68,-242.52 838.68,-236.52 838.68,-236.52 838.68,-129.52 838.68,-129.52 838.68,-123.52 844.68,-117.52 850.68,-117.52" style=""/>
<text text-anchor="middle" x="944.07" y="-231.92" font-family="Times,serif" font-size="14.00" fill="#f0f0f0" style="">TransactionHistory</text>
</g>
<g id="clust4" class="cluster" data-name="cluster_01">

<polygon fill="#2e3e56" stroke="black" points="105.28,-1220.52 105.28,-1349.52 490.71,-1349.52 490.71,-1220.52 105.28,-1220.52" style=""/>
<text text-anchor="middle" x="297.99" y="-1332.92" font-family="Times,serif" font-size="14.00" style="">Legend</text>
</g>
<!-- LandManagementSystem.&lt;Constructor&gt; -->
<g id="node1" class="node" pointer-events="visible" data-name="LandManagementSystem.&lt;Constructor&gt;">

<ellipse fill="#ff9797" stroke="#ff9797" stroke-width="3" cx="178.28" cy="-1009.52" rx="67.55" ry="18" style=""/>
<text text-anchor="middle" x="178.28" y="-1005.32" font-family="Times,serif" font-size="14.00" style="">&lt;Constructor&gt;</text>
</g>
<!-- LandManagementSystem.onlyOwner -->
<g id="node2" class="node" pointer-events="visible" data-name="LandManagementSystem.onlyOwner">

<polygon fill="#edad56" stroke="#1bc6a6" stroke-width="3" points="237.23,-944.06 237.23,-958.98 202.7,-969.52 153.86,-969.52 119.33,-958.98 119.33,-944.06 153.86,-933.52 202.7,-933.52 237.23,-944.06" style=""/>
<polygon fill="none" stroke="#1bc6a6" stroke-width="3" points="241.22,-941.1 241.22,-961.94 203.29,-973.52 153.27,-973.52 115.34,-961.94 115.34,-941.1 153.27,-929.52 203.29,-929.52 241.22,-941.1" style=""/>
<text text-anchor="middle" x="178.28" y="-947.32" font-family="Times,serif" font-size="14.00" style="">onlyOwner</text>
</g>
<!-- LandManagementSystem.onlyGovernmentOfficial -->
<g id="node3" class="node" pointer-events="visible" data-name="LandManagementSystem.onlyGovernmentOfficial">

<polygon fill="#edad56" stroke="#1bc6a6" stroke-width="3" points="293.34,-882.06 293.34,-896.98 225.94,-907.52 130.62,-907.52 63.22,-896.98 63.22,-882.06 130.62,-871.52 225.94,-871.52 293.34,-882.06" style=""/>
<polygon fill="none" stroke="#1bc6a6" stroke-width="3" points="297.34,-878.64 297.34,-900.4 226.25,-911.52 130.31,-911.52 59.22,-900.4 59.22,-878.64 130.31,-867.52 226.25,-867.52 297.34,-878.64" style=""/>
<text text-anchor="middle" x="178.28" y="-885.32" font-family="Times,serif" font-size="14.00" style="">onlyGovernmentOfficial</text>
</g>
<!-- UserRecords.isGovernmentOfficial -->
<g id="node17" class="node" pointer-events="visible" data-name="UserRecords.isGovernmentOfficial">

<ellipse fill="#ff9797" stroke="#ff9797" stroke-width="3" cx="944.07" cy="-1065.52" rx="95.55" ry="18" style=""/>
<text text-anchor="middle" x="944.07" y="-1061.32" font-family="Times,serif" font-size="14.00" style="">isGovernmentOfficial</text>
</g>
<!-- LandManagementSystem.onlyGovernmentOfficial&#45;&gt;UserRecords.isGovernmentOfficial -->
<g id="edge1" class="edge" data-name="LandManagementSystem.onlyGovernmentOfficial-&gt;UserRecords.isGovernmentOfficial">

<path fill="none" stroke="white" stroke-width="2" d="M298.8,-898.7C313.9,-903.69 328.32,-910.71 340.56,-920.52 371.93,-945.67 353.57,-970.53 376.56,-1003.52 442.04,-1097.47 456.57,-1138.9 562.86,-1181.52 653.59,-1217.9 701.75,-1236.16 782.8,-1181.52 818.18,-1157.67 786.17,-1120.01 818.8,-1092.52 825.99,-1086.46 834.24,-1081.66 842.99,-1077.88" style=""/>
<polygon fill="white" stroke="white" stroke-width="2" points="844.19,-1081.17 852.33,-1074.4 841.74,-1074.61 844.19,-1081.17" style=""/>
</g>
<!-- LandManagementSystem.addLandRecord -->
<g id="node4" class="node" pointer-events="visible" data-name="LandManagementSystem.addLandRecord">

<ellipse fill="#ff9797" stroke="#ff9797" stroke-width="3" cx="178.28" cy="-669.52" rx="72.92" ry="18" style=""/>
<text text-anchor="middle" x="178.28" y="-665.32" font-family="Times,serif" font-size="14.00" style="">addLandRecord</text>
</g>
<!-- UserRecords.isUserVerified -->
<g id="node18" class="node" pointer-events="visible" data-name="UserRecords.isUserVerified">

<ellipse fill="#ff9797" stroke="#ff9797" stroke-width="3" cx="676.83" cy="-1046.52" rx="67.77" ry="18" style=""/>
<text text-anchor="middle" x="676.83" y="-1042.32" font-family="Times,serif" font-size="14.00" style="">isUserVerified</text>
</g>
<!-- LandManagementSystem.addLandRecord&#45;&gt;UserRecords.isUserVerified -->
<g id="edge2" class="edge" data-name="LandManagementSystem.addLandRecord-&gt;UserRecords.isUserVerified">

<path fill="none" stroke="white" stroke-width="2" d="M249.74,-664.31C343.86,-659.03 503.38,-656.55 542.86,-696.52 593.4,-747.68 516.58,-964.47 562.86,-1019.52 571.46,-1029.75 583.19,-1036.5 595.84,-1040.87" style=""/>
<polygon fill="white" stroke="white" stroke-width="2" points="594.7,-1044.19 605.27,-1043.55 596.61,-1037.45 594.7,-1044.19" style=""/>
</g>
<!-- UserRecords.updateLandIds -->
<g id="node19" class="node" pointer-events="visible" data-name="UserRecords.updateLandIds">

<ellipse fill="#ff9797" stroke="#ff9797" stroke-width="3" cx="676.83" cy="-1100.52" rx="68.34" ry="18" style=""/>
<text text-anchor="middle" x="676.83" y="-1096.32" font-family="Times,serif" font-size="14.00" style="">updateLandIds</text>
</g>
<!-- LandManagementSystem.addLandRecord&#45;&gt;UserRecords.updateLandIds -->
<g id="edge3" class="edge" data-name="LandManagementSystem.addLandRecord-&gt;UserRecords.updateLandIds">

<path fill="none" stroke="white" stroke-width="2" d="M244.32,-678.41C338.98,-692.84 507.31,-724.66 542.86,-772.52 582.83,-826.33 519.61,-1022.3 562.86,-1073.52 571.39,-1083.62 582.95,-1090.32 595.45,-1094.69" style=""/>
<polygon fill="white" stroke="white" stroke-width="2" points="594.15,-1097.96 604.73,-1097.37 596.09,-1091.23 594.15,-1097.96" style=""/>
</g>
<!-- TransactionHistory.recordTransaction -->
<g id="node39" class="node" pointer-events="visible" data-name="TransactionHistory.recordTransaction">

<ellipse fill="#ff9797" stroke="#ff9797" stroke-width="3" cx="944.07" cy="-197.52" rx="81.06" ry="18" style=""/>
<text text-anchor="middle" x="944.07" y="-193.32" font-family="Times,serif" font-size="14.00" style="">recordTransaction</text>
</g>
<!-- LandManagementSystem.addLandRecord&#45;&gt;TransactionHistory.recordTransaction -->
<g id="edge4" class="edge" data-name="LandManagementSystem.addLandRecord-&gt;TransactionHistory.recordTransaction">

<path fill="none" stroke="white" stroke-width="2" d="M252.43,-668.91C281.61,-665.81 314.4,-658.51 340.56,-642.52 469.11,-563.95 483.68,-509.07 542.86,-370.52 563.75,-321.6 524.79,-289.67 562.86,-252.52 573.33,-242.3 748.23,-220.23 857.13,-207.37" style=""/>
<polygon fill="white" stroke="white" stroke-width="2" points="857.21,-210.89 866.73,-206.24 856.39,-203.93 857.21,-210.89" style=""/>
</g>
<!-- LandManagementSystem.verifyLandRecord -->
<g id="node5" class="node" pointer-events="visible" data-name="LandManagementSystem.verifyLandRecord">

<ellipse fill="#ff9797" stroke="#ff9797" stroke-width="3" cx="178.28" cy="-453.52" rx="81.65" ry="18" style=""/>
<text text-anchor="middle" x="178.28" y="-449.32" font-family="Times,serif" font-size="14.00" style="">verifyLandRecord</text>
</g>
<!-- LandManagementSystem.verifyLandRecord&#45;&gt;TransactionHistory.recordTransaction -->
<g id="edge5" class="edge" data-name="LandManagementSystem.verifyLandRecord-&gt;TransactionHistory.recordTransaction">

<path fill="none" stroke="white" stroke-width="2" d="M257.51,-459.19C287.46,-457.05 319.46,-448.77 340.56,-426.52 389.49,-374.91 323.52,-155.89 376.56,-108.52 443.89,-48.38 704.56,-63.48 782.8,-108.52 810.41,-124.42 793.04,-151.76 818.8,-170.52 829.28,-178.15 841.49,-183.7 854.09,-187.73" style=""/>
<polygon fill="white" stroke="white" stroke-width="2" points="852.76,-190.99 863.33,-190.32 854.65,-184.25 852.76,-190.99" style=""/>
</g>
<!-- LandManagementSystem.rejectLandRecord -->
<g id="node6" class="node" pointer-events="visible" data-name="LandManagementSystem.rejectLandRecord">

<ellipse fill="#ff9797" stroke="#ff9797" stroke-width="3" cx="178.28" cy="-345.52" rx="80.41" ry="18" style=""/>
<text text-anchor="middle" x="178.28" y="-341.32" font-family="Times,serif" font-size="14.00" style="">rejectLandRecord</text>
</g>
<!-- LandManagementSystem.rejectLandRecord&#45;&gt;TransactionHistory.recordTransaction -->
<g id="edge6" class="edge" data-name="LandManagementSystem.rejectLandRecord-&gt;TransactionHistory.recordTransaction">

<path fill="none" stroke="white" stroke-width="2" d="M185.88,-326.41C205.25,-273.7 267.57,-126.47 376.56,-70.52 537.18,11.93 635.08,33.3 782.8,-70.52 821.44,-97.68 783.27,-139.39 818.8,-170.52 828.32,-178.87 839.82,-184.83 851.93,-189.06" style=""/>
<polygon fill="white" stroke="white" stroke-width="2" points="850.71,-192.35 861.29,-191.86 852.72,-185.64 850.71,-192.35" style=""/>
</g>
<!-- LandManagementSystem.buyLand -->
<g id="node7" class="node" pointer-events="visible" data-name="LandManagementSystem.buyLand">

<ellipse fill="#ff9797" stroke="brown" stroke-width="3" cx="178.28" cy="-615.52" rx="45.23" ry="18" style=""/>
<text text-anchor="middle" x="178.28" y="-611.32" font-family="Times,serif" font-size="14.00" style="">buyLand</text>
</g>
<!-- LandManagementSystem.payable -->
<g id="node15" class="node" pointer-events="visible" data-name="LandManagementSystem.payable">

<ellipse fill="#edad56" stroke="#edad56" stroke-width="3" cx="455.71" cy="-886.52" rx="41.13" ry="18" style=""/>
<text text-anchor="middle" x="455.71" y="-882.32" font-family="Times,serif" font-size="14.00" style="">payable</text>
</g>
<!-- LandManagementSystem.buyLand&#45;&gt;LandManagementSystem.payable -->
<g id="edge10" class="edge" data-name="LandManagementSystem.buyLand-&gt;LandManagementSystem.payable">

<path fill="none" stroke="#1bc6a6" stroke-width="2" d="M223.13,-610.11C259.6,-608.24 310.27,-612.18 340.56,-642.52 409.64,-711.7 313.48,-784.83 376.56,-859.52 383.41,-867.63 392.82,-873.31 402.74,-877.28" style=""/>
<polygon fill="#1bc6a6" stroke="#1bc6a6" stroke-width="2" points="401.49,-880.55 412.09,-880.38 403.7,-873.91 401.49,-880.55" style=""/>
</g>
<!-- LandManagementSystem.buyLand&#45;&gt;UserRecords.isUserVerified -->
<g id="edge7" class="edge" data-name="LandManagementSystem.buyLand-&gt;UserRecords.isUserVerified">

<path fill="none" stroke="white" stroke-width="2" d="M218.64,-605.8C293.97,-589.82 458.56,-568.02 542.86,-657.52 598.1,-716.17 511.22,-957.68 562.86,-1019.52 571.43,-1029.78 583.14,-1036.54 595.79,-1040.92" style=""/>
<polygon fill="white" stroke="white" stroke-width="2" points="594.64,-1044.23 605.22,-1043.6 596.55,-1037.5 594.64,-1044.23" style=""/>
</g>
<!-- UserRecords.removeLandFromUser -->
<g id="node20" class="node" pointer-events="visible" data-name="UserRecords.removeLandFromUser">

<ellipse fill="#ff9797" stroke="#ff9797" stroke-width="3" cx="676.83" cy="-444.52" rx="98.99" ry="18" style=""/>
<text text-anchor="middle" x="676.83" y="-440.32" font-family="Times,serif" font-size="14.00" style="">removeLandFromUser</text>
</g>
<!-- LandManagementSystem.buyLand&#45;&gt;UserRecords.removeLandFromUser -->
<g id="edge8" class="edge" data-name="LandManagementSystem.buyLand-&gt;UserRecords.removeLandFromUser">

<path fill="none" stroke="white" stroke-width="2" d="M224.02,-611.89C256.92,-608.3 302.36,-601.4 340.56,-588.52 446.36,-552.85 458.35,-510.8 562.86,-471.52 572.69,-467.82 583.21,-464.51 593.71,-461.58" style=""/>
<polygon fill="white" stroke="white" stroke-width="2" points="594.31,-465.05 603.08,-459.1 592.51,-458.28 594.31,-465.05" style=""/>
</g>
<!-- LandManagementSystem.buyLand&#45;&gt;TransactionHistory.recordTransaction -->
<g id="edge9" class="edge" data-name="LandManagementSystem.buyLand-&gt;TransactionHistory.recordTransaction">

<path fill="none" stroke="white" stroke-width="2" d="M223.84,-619.82C259.51,-620.76 308.67,-616.09 340.56,-588.52 380.11,-554.33 352.79,-523.09 376.56,-476.52 440.2,-351.82 440.12,-289.86 562.86,-222.52 657,-170.87 784.61,-174.67 865.4,-184.36" style=""/>
<polygon fill="white" stroke="white" stroke-width="2" points="864.59,-187.79 874.95,-185.58 865.48,-180.84 864.59,-187.79" style=""/>
</g>
<!-- LandManagementSystem.sellLand -->
<g id="node8" class="node" pointer-events="visible" data-name="LandManagementSystem.sellLand">

<ellipse fill="#ff9797" stroke="#ff9797" stroke-width="3" cx="178.28" cy="-507.52" rx="44.08" ry="18" style=""/>
<text text-anchor="middle" x="178.28" y="-503.32" font-family="Times,serif" font-size="14.00" style="">sellLand</text>
</g>
<!-- LandManagementSystem.sellLand&#45;&gt;UserRecords.isUserVerified -->
<g id="edge11" class="edge" data-name="LandManagementSystem.sellLand-&gt;UserRecords.isUserVerified">

<path fill="none" stroke="white" stroke-width="2" d="M217.86,-497.9C292.97,-481.74 458.8,-459.14 542.86,-549.52 578.45,-587.79 529.61,-979.19 562.86,-1019.52 571.36,-1029.84 583.04,-1036.62 595.68,-1041.01" style=""/>
<polygon fill="white" stroke="white" stroke-width="2" points="594.53,-1044.32 605.1,-1043.69 596.44,-1037.59 594.53,-1044.32" style=""/>
</g>
<!-- LandManagementSystem.sellLand&#45;&gt;TransactionHistory.recordTransaction -->
<g id="edge12" class="edge" data-name="LandManagementSystem.sellLand-&gt;TransactionHistory.recordTransaction">

<path fill="none" stroke="white" stroke-width="2" d="M221.76,-513.25C258.63,-515.61 310.66,-512.22 340.56,-480.52 391.78,-426.21 321.02,-196.4 376.56,-146.52 443.73,-86.2 696.4,-120.36 782.8,-146.52 801.2,-152.09 801.09,-163.01 818.8,-170.52 832.16,-176.18 846.86,-180.72 861.32,-184.33" style=""/>
<polygon fill="white" stroke="white" stroke-width="2" points="860.45,-187.72 870.98,-186.59 862.04,-180.91 860.45,-187.72" style=""/>
</g>
<!-- LandManagementSystem.getAllLandRecords -->
<g id="node9" class="node" pointer-events="visible" data-name="LandManagementSystem.getAllLandRecords">

<ellipse fill="#ff9797" stroke="#ff9797" stroke-width="3" cx="178.28" cy="-723.52" rx="86.82" ry="18" style=""/>
<text text-anchor="middle" x="178.28" y="-719.32" font-family="Times,serif" font-size="14.00" style="">getAllLandRecords</text>
</g>
<!-- LandManagementSystem.getAllLandRecords&#45;&gt;UserRecords.isUserVerified -->
<g id="edge13" class="edge" data-name="LandManagementSystem.getAllLandRecords-&gt;UserRecords.isUserVerified">

<path fill="none" stroke="white" stroke-width="2" d="M244.18,-710.57C326.45,-698.35 466.71,-692.22 542.86,-772.52 580.75,-812.48 527.03,-977.7 562.86,-1019.52 571.56,-1029.67 583.33,-1036.38 596,-1040.74" style=""/>
<polygon fill="white" stroke="white" stroke-width="2" points="594.86,-1044.05 605.44,-1043.41 596.77,-1037.32 594.86,-1044.05" style=""/>
</g>
<!-- UserRecords.getMutationNumber -->
<g id="node21" class="node" pointer-events="visible" data-name="UserRecords.getMutationNumber">

<ellipse fill="#ff9797" stroke="#ff9797" stroke-width="3" cx="676.83" cy="-1154.52" rx="89.77" ry="18" style=""/>
<text text-anchor="middle" x="676.83" y="-1150.32" font-family="Times,serif" font-size="14.00" style="">getMutationNumber</text>
</g>
<!-- LandManagementSystem.getAllLandRecords&#45;&gt;UserRecords.getMutationNumber -->
<g id="edge14" class="edge" data-name="LandManagementSystem.getAllLandRecords-&gt;UserRecords.getMutationNumber">

<path fill="none" stroke="white" stroke-width="2" d="M250.27,-734.73C350.75,-751.31 524.39,-782.85 542.86,-805.52 588.14,-861.1 516.72,-1072.64 562.86,-1127.52 567.8,-1133.4 573.78,-1138.13 580.38,-1141.92" style=""/>
<polygon fill="white" stroke="white" stroke-width="2" points="578.71,-1145.01 589.24,-1146.15 581.72,-1138.69 578.71,-1145.01" style=""/>
</g>
<!-- LandManagementSystem._getLandRecords -->
<g id="node10" class="node" pointer-events="visible" data-name="LandManagementSystem._getLandRecords">

<ellipse fill="#f2c383" stroke="#f2c383" stroke-width="3" cx="455.71" cy="-976.52" rx="79.3" ry="18" style=""/>
<text text-anchor="middle" x="455.71" y="-972.32" font-family="Times,serif" font-size="14.00" style="">_getLandRecords</text>
</g>
<!-- LandManagementSystem._getLandRecords&#45;&gt;UserRecords.isUserVerified -->
<g id="edge15" class="edge" data-name="LandManagementSystem._getLandRecords-&gt;UserRecords.isUserVerified">

<path fill="none" stroke="white" stroke-width="2" d="M494.52,-993.45C514.56,-1002.01 539.75,-1012.13 562.86,-1019.52 577.41,-1024.18 593.25,-1028.44 608.33,-1032.14" style=""/>
<polygon fill="white" stroke="white" stroke-width="2" points="607.3,-1035.49 617.84,-1034.41 608.92,-1028.68 607.3,-1035.49" style=""/>
</g>
<!-- LandManagementSystem._getLandRecords&#45;&gt;UserRecords.getMutationNumber -->
<g id="edge16" class="edge" data-name="LandManagementSystem._getLandRecords-&gt;UserRecords.getMutationNumber">

<path fill="none" stroke="white" stroke-width="2" d="M464.65,-995.66C479.13,-1028.11 513.01,-1093.69 562.86,-1127.52 570.29,-1132.56 578.55,-1136.67 587.13,-1140.01" style=""/>
<polygon fill="white" stroke="white" stroke-width="2" points="585.96,-1143.31 596.55,-1143.25 588.24,-1136.69 585.96,-1143.31" style=""/>
</g>
<!-- LandManagementSystem.getLandRecordsForCurrentUser -->
<g id="node11" class="node" pointer-events="visible" data-name="LandManagementSystem.getLandRecordsForCurrentUser">

<ellipse fill="#ff9797" stroke="#ff9797" stroke-width="3" cx="178.28" cy="-777.52" rx="135.44" ry="18" style=""/>
<text text-anchor="middle" x="178.28" y="-773.32" font-family="Times,serif" font-size="14.00" style="">getLandRecordsForCurrentUser</text>
</g>
<!-- LandManagementSystem.getLandRecordsForCurrentUser&#45;&gt;LandManagementSystem._getLandRecords -->
<g id="edge17" class="edge" data-name="LandManagementSystem.getLandRecordsForCurrentUser-&gt;LandManagementSystem._getLandRecords">

<path fill="none" stroke="#1bc6a6" stroke-width="2" d="M305.59,-784.61C318.33,-789.29 330.32,-795.74 340.56,-804.52 379.29,-837.73 347.52,-871.58 376.56,-913.52 386.6,-928.02 400.92,-940.9 414.56,-951.18" style=""/>
<polygon fill="#1bc6a6" stroke="#1bc6a6" stroke-width="2" points="412.15,-953.76 422.32,-956.75 416.23,-948.07 412.15,-953.76" style=""/>
</g>
<!-- LandManagementSystem.getLandRecordsExceptForCurrentUser -->
<g id="node12" class="node" pointer-events="visible" data-name="LandManagementSystem.getLandRecordsExceptForCurrentUser">

<ellipse fill="#ff9797" stroke="#ff9797" stroke-width="3" cx="178.28" cy="-831.52" rx="162.06" ry="18" style=""/>
<text text-anchor="middle" x="178.28" y="-827.32" font-family="Times,serif" font-size="14.00" style="">getLandRecordsExceptForCurrentUser</text>
</g>
<!-- LandManagementSystem.getLandRecordsExceptForCurrentUser&#45;&gt;LandManagementSystem._getLandRecords -->
<g id="edge18" class="edge" data-name="LandManagementSystem.getLandRecordsExceptForCurrentUser-&gt;LandManagementSystem._getLandRecords">

<path fill="none" stroke="#1bc6a6" stroke-width="2" d="M308.85,-843.2C320.05,-847.14 330.81,-852.15 340.56,-858.52 365.02,-874.49 356.95,-891.86 376.56,-913.52 388.77,-927 404.02,-939.97 417.8,-950.59" style=""/>
<polygon fill="#1bc6a6" stroke="#1bc6a6" stroke-width="2" points="415.45,-953.21 425.55,-956.41 419.65,-947.61 415.45,-953.21" style=""/>
</g>
<!-- LandManagementSystem.updateDocument -->
<g id="node13" class="node" pointer-events="visible" data-name="LandManagementSystem.updateDocument">

<ellipse fill="#ff9797" stroke="#ff9797" stroke-width="3" cx="178.28" cy="-399.52" rx="77.01" ry="18" style=""/>
<text text-anchor="middle" x="178.28" y="-395.32" font-family="Times,serif" font-size="14.00" style="">updateDocument</text>
</g>
<!-- LandManagementSystem.transferOwnership -->
<g id="node14" class="node" pointer-events="visible" data-name="LandManagementSystem.transferOwnership">

<ellipse fill="#ff9797" stroke="#ff9797" stroke-width="3" cx="178.28" cy="-561.52" rx="82.81" ry="18" style=""/>
<text text-anchor="middle" x="178.28" y="-557.32" font-family="Times,serif" font-size="14.00" style="">transferOwnership</text>
</g>
<!-- LandManagementSystem.address -->
<g id="node16" class="node" pointer-events="visible" data-name="LandManagementSystem.address">

<ellipse fill="#edad56" stroke="#edad56" stroke-width="3" cx="455.71" cy="-832.52" rx="40" ry="18" style=""/>
<text text-anchor="middle" x="455.71" y="-828.32" font-family="Times,serif" font-size="14.00" style="">address</text>
</g>
<!-- LandManagementSystem.transferOwnership&#45;&gt;LandManagementSystem.address -->
<g id="edge19" class="edge" data-name="LandManagementSystem.transferOwnership-&gt;LandManagementSystem.address">

<path fill="none" stroke="#1bc6a6" stroke-width="2" d="M262.43,-560.45C289.58,-563.79 318.4,-571.69 340.56,-588.52 410.28,-641.47 439.07,-747.46 449.51,-800.6" style=""/>
<polygon fill="#1bc6a6" stroke="#1bc6a6" stroke-width="2" points="446.03,-801.03 451.29,-810.23 452.92,-799.76 446.03,-801.03" style=""/>
</g>
<!-- LandManagementSystem.transferOwnership&#45;&gt;UserRecords.isUserVerified -->
<g id="edge20" class="edge" data-name="LandManagementSystem.transferOwnership-&gt;UserRecords.isUserVerified">

<path fill="none" stroke="white" stroke-width="2" d="M258.77,-555.73C353.83,-550.72 504.91,-549.5 542.86,-588.52 576.28,-622.89 532.29,-982.58 562.86,-1019.52 571.38,-1029.82 583.07,-1036.6 595.71,-1040.98" style=""/>
<polygon fill="white" stroke="white" stroke-width="2" points="594.56,-1044.3 605.14,-1043.67 596.48,-1037.56 594.56,-1044.3" style=""/>
</g>
<!-- LandManagementSystem.transferOwnership&#45;&gt;UserRecords.removeLandFromUser -->
<g id="edge21" class="edge" data-name="LandManagementSystem.transferOwnership-&gt;UserRecords.removeLandFromUser">

<path fill="none" stroke="white" stroke-width="2" d="M262.26,-561.75C289.24,-558.31 318.01,-550.57 340.56,-534.52 367.78,-515.14 348.53,-486.71 376.56,-468.52 438.73,-428.16 524.17,-425.24 587.85,-430.61" style=""/>
<polygon fill="white" stroke="white" stroke-width="2" points="587.39,-434.08 597.67,-431.54 588.05,-427.11 587.39,-434.08" style=""/>
</g>
<!-- LandManagementSystem.transferOwnership&#45;&gt;TransactionHistory.recordTransaction -->
<g id="edge22" class="edge" data-name="LandManagementSystem.transferOwnership-&gt;TransactionHistory.recordTransaction">

<path fill="none" stroke="white" stroke-width="2" d="M258.88,-567.21C288.48,-564.94 319.87,-556.57 340.56,-534.52 394.07,-477.51 318.51,-236.9 376.56,-184.52 446.46,-121.44 728.51,-159.95 866.41,-183.4" style=""/>
<polygon fill="white" stroke="white" stroke-width="2" points="865.46,-186.79 875.91,-185.04 866.65,-179.89 865.46,-186.79" style=""/>
</g>
<!-- UserRecords.checkRole -->
<g id="node33" class="node" pointer-events="visible" data-name="UserRecords.checkRole">

<ellipse fill="#edad56" stroke="#edad56" stroke-width="3" cx="1157.14" cy="-1065.52" rx="51.58" ry="18" style=""/>
<text text-anchor="middle" x="1157.14" y="-1061.32" font-family="Times,serif" font-size="14.00" style="">checkRole</text>
</g>
<!-- UserRecords.isGovernmentOfficial&#45;&gt;UserRecords.checkRole -->
<g id="edge30" class="edge" data-name="UserRecords.isGovernmentOfficial-&gt;UserRecords.checkRole">

<path fill="none" stroke="#1bc6a6" stroke-width="2" d="M1041.03,-1065.52C1058.05,-1065.52 1075.4,-1065.52 1091.29,-1065.52" style=""/>
<polygon fill="#1bc6a6" stroke="#1bc6a6" stroke-width="2" points="1091.24,-1069.02 1101.24,-1065.52 1091.24,-1062.02 1091.24,-1069.02" style=""/>
</g>
<!-- UserRecords.removeLandFromUser&#45;&gt;TransactionHistory.recordTransaction -->
<g id="edge26" class="edge" data-name="UserRecords.removeLandFromUser-&gt;TransactionHistory.recordTransaction">

<path fill="none" stroke="white" stroke-width="2" d="M759.41,-433.48C768.13,-429.56 776.2,-424.36 782.8,-417.52 834.88,-363.47 771.34,-310.67 818.8,-252.52 832.57,-235.64 852.59,-223.78 872.54,-215.51" style=""/>
<polygon fill="white" stroke="white" stroke-width="2" points="873.64,-218.84 881.74,-212.01 871.15,-212.3 873.64,-218.84" style=""/>
</g>
<!-- UserRecords.&lt;Constructor&gt; -->
<g id="node22" class="node" pointer-events="visible" data-name="UserRecords.&lt;Constructor&gt;">

<ellipse fill="#ff9797" stroke="#ff9797" stroke-width="3" cx="676.83" cy="-938.52" rx="67.55" ry="18" style=""/>
<text text-anchor="middle" x="676.83" y="-934.32" font-family="Times,serif" font-size="14.00" style="">&lt;Constructor&gt;</text>
</g>
<!-- UserRecords.onlyAdmin -->
<g id="node23" class="node" pointer-events="visible" data-name="UserRecords.onlyAdmin">

<polygon fill="#edad56" stroke="#1bc6a6" stroke-width="3" points="736.45,-873.06 736.45,-887.98 701.53,-898.52 652.13,-898.52 617.2,-887.98 617.2,-873.06 652.13,-862.52 701.53,-862.52 736.45,-873.06" style=""/>
<polygon fill="none" stroke="#1bc6a6" stroke-width="3" points="740.46,-870.09 740.46,-890.94 702.12,-902.52 651.54,-902.52 613.2,-890.94 613.2,-870.09 651.54,-858.52 702.12,-858.52 740.46,-870.09" style=""/>
<text text-anchor="middle" x="676.83" y="-876.32" font-family="Times,serif" font-size="14.00" style="">onlyAdmin</text>
</g>
<!-- UserRecords.addUser -->
<g id="node24" class="node" pointer-events="visible" data-name="UserRecords.addUser">

<ellipse fill="#ff9797" stroke="#ff9797" stroke-width="3" cx="676.83" cy="-822.52" rx="43.43" ry="18" style=""/>
<text text-anchor="middle" x="676.83" y="-818.32" font-family="Times,serif" font-size="14.00" style="">addUser</text>
</g>
<!-- UserRecords.address -->
<g id="node38" class="node" pointer-events="visible" data-name="UserRecords.address">

<ellipse fill="#edad56" stroke="#edad56" stroke-width="3" cx="944.07" cy="-942.52" rx="40" ry="18" style=""/>
<text text-anchor="middle" x="944.07" y="-938.32" font-family="Times,serif" font-size="14.00" style="">address</text>
</g>
<!-- UserRecords.addUser&#45;&gt;UserRecords.address -->
<g id="edge23" class="edge" data-name="UserRecords.addUser-&gt;UserRecords.address">

<path fill="none" stroke="#1bc6a6" stroke-width="2" d="M718.04,-830.15C737.94,-834.6 762.08,-841.03 782.8,-849.52 829.06,-868.47 878.22,-898.69 909.71,-919.51" style=""/>
<polygon fill="#1bc6a6" stroke="#1bc6a6" stroke-width="2" points="907.71,-922.37 917.96,-925.03 911.6,-916.56 907.71,-922.37" style=""/>
</g>
<!-- UserRecords.addUser&#45;&gt;TransactionHistory.recordTransaction -->
<g id="edge24" class="edge" data-name="UserRecords.addUser-&gt;TransactionHistory.recordTransaction">

<path fill="none" stroke="white" stroke-width="2" d="M721.68,-822.62C743.41,-820.2 768.08,-813.26 782.8,-795.52 860.02,-702.45 749.5,-351.63 818.8,-252.52 831.06,-234.98 850.23,-222.97 869.87,-214.77" style=""/>
<polygon fill="white" stroke="white" stroke-width="2" points="870.84,-218.14 878.95,-211.32 868.36,-211.6 870.84,-218.14" style=""/>
</g>
<!-- UserRecords.getOwnProfile -->
<g id="node25" class="node" pointer-events="visible" data-name="UserRecords.getOwnProfile">

<ellipse fill="#ff9797" stroke="#ff9797" stroke-width="3" cx="676.83" cy="-992.52" rx="67.79" ry="18" style=""/>
<text text-anchor="middle" x="676.83" y="-988.32" font-family="Times,serif" font-size="14.00" style="">getOwnProfile</text>
</g>
<!-- UserRecords.getOwnProfile&#45;&gt;UserRecords.address -->
<g id="edge25" class="edge" data-name="UserRecords.getOwnProfile-&gt;UserRecords.address">

<path fill="none" stroke="#1bc6a6" stroke-width="2" d="M734.4,-981.85C781.49,-972.98 847.88,-960.46 893.05,-951.95" style=""/>
<polygon fill="#1bc6a6" stroke="#1bc6a6" stroke-width="2" points="893.61,-955.41 902.79,-950.11 892.31,-948.53 893.61,-955.41" style=""/>
</g>
<!-- UserRecords.getUserProfile -->
<g id="node26" class="node" pointer-events="visible" data-name="UserRecords.getUserProfile">

<ellipse fill="#ff9797" stroke="#ff9797" stroke-width="3" cx="676.83" cy="-714.52" rx="67.2" ry="18" style=""/>
<text text-anchor="middle" x="676.83" y="-710.32" font-family="Times,serif" font-size="14.00" style="">getUserProfile</text>
</g>
<!-- UserRecords.getAllUsers -->
<g id="node27" class="node" pointer-events="visible" data-name="UserRecords.getAllUsers">

<ellipse fill="#ff9797" stroke="#ff9797" stroke-width="3" cx="676.83" cy="-660.52" rx="57.33" ry="18" style=""/>
<text text-anchor="middle" x="676.83" y="-656.32" font-family="Times,serif" font-size="14.00" style="">getAllUsers</text>
</g>
<!-- UserRecords.getAadharNumber -->
<g id="node28" class="node" pointer-events="visible" data-name="UserRecords.getAadharNumber">

<ellipse fill="#ff9797" stroke="#ff9797" stroke-width="3" cx="676.83" cy="-606.52" rx="82.8" ry="18" style=""/>
<text text-anchor="middle" x="676.83" y="-602.32" font-family="Times,serif" font-size="14.00" style="">getAadharNumber</text>
</g>
<!-- UserRecords.getUsingAadharNumber -->
<g id="node29" class="node" pointer-events="visible" data-name="UserRecords.getUsingAadharNumber">

<ellipse fill="#ff9797" stroke="#ff9797" stroke-width="3" cx="676.83" cy="-552.52" rx="105.94" ry="18" style=""/>
<text text-anchor="middle" x="676.83" y="-548.32" font-family="Times,serif" font-size="14.00" style="">getUsingAadharNumber</text>
</g>
<!-- UserRecords.userLandVerified -->
<g id="node30" class="node" pointer-events="visible" data-name="UserRecords.userLandVerified">

<ellipse fill="#ff9797" stroke="#ff9797" stroke-width="3" cx="676.83" cy="-498.52" rx="79.28" ry="18" style=""/>
<text text-anchor="middle" x="676.83" y="-494.32" font-family="Times,serif" font-size="14.00" style="">userLandVerified</text>
</g>
<!-- UserRecords.verifyUser -->
<g id="node31" class="node" pointer-events="visible" data-name="UserRecords.verifyUser">

<ellipse fill="#ff9797" stroke="#ff9797" stroke-width="3" cx="676.83" cy="-768.52" rx="52.16" ry="18" style=""/>
<text text-anchor="middle" x="676.83" y="-764.32" font-family="Times,serif" font-size="14.00" style="">verifyUser</text>
</g>
<!-- UserRecords.isCurrentGovernmentOfficial -->
<g id="node35" class="node" pointer-events="visible" data-name="UserRecords.isCurrentGovernmentOfficial">

<ellipse fill="#edad56" stroke="#edad56" stroke-width="3" cx="944.07" cy="-803.52" rx="125.05" ry="18" style=""/>
<text text-anchor="middle" x="944.07" y="-799.32" font-family="Times,serif" font-size="14.00" style="">isCurrentGovernmentOfficial</text>
</g>
<!-- UserRecords.verifyUser&#45;&gt;UserRecords.isCurrentGovernmentOfficial -->
<g id="edge27" class="edge" data-name="UserRecords.verifyUser-&gt;UserRecords.isCurrentGovernmentOfficial">

<path fill="none" stroke="#1bc6a6" stroke-width="2" d="M727.1,-775.02C757.45,-779.03 797.6,-784.32 835.04,-789.26" style=""/>
<polygon fill="#1bc6a6" stroke="#1bc6a6" stroke-width="2" points="834.24,-792.69 844.61,-790.53 835.15,-785.75 834.24,-792.69" style=""/>
</g>
<!-- UserRecords.verifyUser&#45;&gt;TransactionHistory.recordTransaction -->
<g id="edge28" class="edge" data-name="UserRecords.verifyUser-&gt;TransactionHistory.recordTransaction">

<path fill="none" stroke="white" stroke-width="2" d="M730.26,-767.38C749.62,-764.15 769.94,-756.89 782.8,-741.52 852.68,-657.92 756.04,-341.59 818.8,-252.52 831.12,-235.03 850.31,-223.03 869.95,-214.82" style=""/>
<polygon fill="white" stroke="white" stroke-width="2" points="870.92,-218.2 879.02,-211.38 868.43,-211.66 870.92,-218.2" style=""/>
</g>
<!-- UserRecords.addGovernmentOfficial -->
<g id="node32" class="node" pointer-events="visible" data-name="UserRecords.addGovernmentOfficial">

<ellipse fill="#ff9797" stroke="#ff9797" stroke-width="3" cx="676.83" cy="-390.52" rx="103.06" ry="18" style=""/>
<text text-anchor="middle" x="676.83" y="-386.32" font-family="Times,serif" font-size="14.00" style="">addGovernmentOfficial</text>
</g>
<!-- UserRecords.removeGovernmentOfficial -->
<g id="node34" class="node" pointer-events="visible" data-name="UserRecords.removeGovernmentOfficial">

<ellipse fill="#ff9797" stroke="#ff9797" stroke-width="3" cx="944.07" cy="-1119.52" rx="118.08" ry="18" style=""/>
<text text-anchor="middle" x="944.07" y="-1115.32" font-family="Times,serif" font-size="14.00" style="">removeGovernmentOfficial</text>
</g>
<!-- UserRecords.removeGovernmentOfficial&#45;&gt;UserRecords.checkRole -->
<g id="edge29" class="edge" data-name="UserRecords.removeGovernmentOfficial-&gt;UserRecords.checkRole">

<path fill="none" stroke="#1bc6a6" stroke-width="2" d="M1019.58,-1104.44C1036.04,-1100.81 1053.33,-1096.74 1069.35,-1092.52 1081,-1089.45 1093.43,-1085.8 1105.12,-1082.21" style=""/>
<polygon fill="#1bc6a6" stroke="#1bc6a6" stroke-width="2" points="1106.07,-1085.58 1114.57,-1079.25 1103.98,-1078.89 1106.07,-1085.58" style=""/>
</g>
<!-- UserRecords.isCurrentGovernmentOfficial&#45;&gt;UserRecords.checkRole -->
<g id="edge31" class="edge" data-name="UserRecords.isCurrentGovernmentOfficial-&gt;UserRecords.checkRole">

<path fill="none" stroke="#1bc6a6" stroke-width="2" d="M970.56,-822.56C997.31,-843.39 1039.54,-878.73 1069.35,-915.52 1100.11,-953.49 1126.78,-1003.67 1142.16,-1035.27" style=""/>
<polygon fill="#1bc6a6" stroke="#1bc6a6" stroke-width="2" points="1138.9,-1036.56 1146.37,-1044.07 1145.21,-1033.54 1138.9,-1036.56" style=""/>
</g>
<!-- UserRecords.isAdmin -->
<g id="node36" class="node" pointer-events="visible" data-name="UserRecords.isAdmin">

<ellipse fill="#ff9797" stroke="#ff9797" stroke-width="3" cx="676.83" cy="-336.52" rx="44.11" ry="18" style=""/>
<text text-anchor="middle" x="676.83" y="-332.32" font-family="Times,serif" font-size="14.00" style="">isAdmin</text>
</g>
<!-- UserRecords.whoIsAdmin -->
<g id="node37" class="node" pointer-events="visible" data-name="UserRecords.whoIsAdmin">

<ellipse fill="#ff9797" stroke="#ff9797" stroke-width="3" cx="676.83" cy="-282.52" rx="61.43" ry="18" style=""/>
<text text-anchor="middle" x="676.83" y="-278.32" font-family="Times,serif" font-size="14.00" style="">whoIsAdmin</text>
</g>
<!-- TransactionHistory.getTransactionHistory -->
<g id="node40" class="node" pointer-events="visible" data-name="TransactionHistory.getTransactionHistory">

<ellipse fill="#ff9797" stroke="#ff9797" stroke-width="3" cx="944.07" cy="-143.52" rx="97.28" ry="18" style=""/>
<text text-anchor="middle" x="944.07" y="-139.32" font-family="Times,serif" font-size="14.00" style="">getTransactionHistory</text>
</g>
<!-- key -->
<g id="node41" class="node" pointer-events="visible" data-name="key">

<polygon fill="#edad56" stroke="none" stroke-width="3" points="243.28,-1316.52 113.28,-1316.52 113.28,-1228.52 243.28,-1228.52 243.28,-1316.52" style=""/>
<text text-anchor="start" x="162.92" y="-1297.92" font-family="Times,serif" font-size="14.00" style="">Internal Call</text>
<text text-anchor="start" x="159.03" y="-1277.92" font-family="Times,serif" font-size="14.00" style="">External Call</text>
<text text-anchor="start" x="136.48" y="-1257.92" font-family="Times,serif" font-size="14.00" style="">Defined Contract</text>
<text text-anchor="start" x="122.88" y="-1237.92" font-family="Times,serif" font-size="14.00" style="">Undefined Contract</text>
</g>
<!-- key2 -->
<g id="node42" class="node" pointer-events="visible" data-name="key2">

<polygon fill="#edad56" stroke="none" stroke-width="3" points="482.71,-1316.52 428.71,-1316.52 428.71,-1228.52 482.71,-1228.52 482.71,-1316.52" style=""/>
<text text-anchor="start" x="445.71" y="-1297.92" font-family="Times,serif" font-size="14.00" style="">   </text>
<text text-anchor="start" x="445.71" y="-1277.92" font-family="Times,serif" font-size="14.00" style="">   </text>
<polygon fill="#445773" stroke="none" points="443.71,-1252.52 443.71,-1272.52 468.71,-1272.52 468.71,-1252.52 443.71,-1252.52" style=""/>
<text text-anchor="start" x="445.71" y="-1257.92" font-family="Times,serif" font-size="14.00" style="">   </text>
<polygon fill="none" stroke="#e8726d" points="445.71,-1234.52 445.71,-1250.52 466.71,-1250.52 466.71,-1234.52 445.71,-1234.52" style=""/>
</g>
<!-- key&#45;&gt;key2 -->
<g id="edge32" class="edge" data-name="key-&gt;key2">

<path fill="none" stroke="#1bc6a6" stroke-width="2" d="M236.28,-1302.52C323.55,-1302.52 348.56,-1302.52 429.75,-1302.52" style=""/>
<polygon fill="#1bc6a6" stroke="#1bc6a6" stroke-width="2" points="429.68,-1306.02 439.68,-1302.52 429.68,-1299.02 429.68,-1306.02" style=""/>
</g>
<!-- key&#45;&gt;key2 -->
<g id="edge33" class="edge" data-name="key-&gt;key2">

<path fill="none" stroke="white" stroke-width="2" d="M236.28,-1282.52C323.55,-1282.52 348.56,-1282.52 429.75,-1282.52" style=""/>
<polygon fill="white" stroke="white" stroke-width="2" points="429.68,-1286.02 439.68,-1282.52 429.68,-1279.02 429.68,-1286.02" style=""/>
</g>
</g>
</svg>